<svg width="348" height="139" viewBox="0 0 348 139" fill="none" xmlns="http://www.w3.org/2000/svg">
<mask id="mask0_0_139" style="mask-type:alpha" maskUnits="userSpaceOnUse" x="-1" y="2" width="157" height="140">
<path d="M155.439 2.5H-0.499908V141.294H155.439V2.5Z" fill="#D9D9D9"/>
</mask>
<g mask="url(#mask0_0_139)">
<path d="M60.7202 46.6166C60.7202 46.6166 62.9005 47.7628 64.0894 50.1769C65.2773 52.5911 64.4555 55.003 64.4555 55.003C64.4555 55.003 71.0375 56.4607 72.8668 61.0103C74.695 65.56 72.3182 69.0896 72.3182 69.0896C72.3182 69.0896 75.8937 71.4104 73.5569 75.0322C71.22 78.6539 49.2787 75.0322 49.2787 75.0322L56.6943 45.2237L60.7202 46.6166" fill="black"/>
<path d="M44.9399 46.6165C44.9399 46.6165 42.7596 47.7627 41.5706 50.1768C40.3827 52.5909 41.2045 55.0029 41.2045 55.0029C41.2045 55.0029 34.6226 56.4605 32.7932 61.0102C30.965 65.5598 33.3418 69.0894 33.3418 69.0894C33.3418 69.0894 30.3538 72.0607 32.1032 75.032C37.8601 84.8124 56.3813 75.032 56.3813 75.032L48.9657 45.2236L44.9399 46.6165" fill="black"/>
<path d="M107.233 79.0131C107.233 79.0131 94.4214 83.4607 92.2811 79.9322C90.1407 76.4037 89.9442 73.4554 89.9442 73.4554C89.9442 73.4554 94.1515 62.9511 97.6622 64.728C103.151 67.5073 107.233 79.0131 107.233 79.0131" fill="#FC8165"/>
<path d="M97.3642 69.1535C97.3642 69.1535 99.295 75.5601 94.8016 77.8415C90.3093 80.1229 90.5047 72.1709 90.5047 72.1709L92.0306 68.8146L96.3296 67.731L97.3642 69.1535" fill="#FC8165"/>
<path d="M96.121 76.843L96.3111 76.7619C98.4385 74.611 98.1102 71.1604 98.094 71.0134C98.0788 70.8631 97.9417 70.7589 97.7992 70.7699C97.6501 70.7853 97.5421 70.9202 97.5583 71.0704C97.5616 71.1033 97.8726 74.4103 95.931 76.3747C95.8251 76.4811 95.8251 76.6544 95.9299 76.7608L96.121 76.843" fill="black"/>
<path d="M23.236 204.631C22.9553 205.841 49.0573 206.536 49.945 205.646C50.8434 204.745 54.5831 151.95 54.5831 151.95C54.5831 151.95 54.6965 152.441 54.8758 153.319C55.5831 156.764 57.4254 166.05 58.0755 173.362C58.8843 182.511 61.9177 205.646 61.9177 205.646H89.1763C89.1763 205.646 87.8178 182.181 81.5177 153.809C78.237 139.025 74.5978 127.366 71.6897 119.21C68.477 110.197 66.1401 105.453 66.1401 105.453C66.1401 105.453 34.3665 92.3334 32.1991 110.083C31.4907 115.856 23.5168 203.41 23.236 204.631" fill="#FFAF45"/>
<path d="M45.4377 117.237C47.2671 117.237 48.6256 115.718 49.0759 115.139C50.0359 115.763 53.916 118.036 57.6448 116.607C60.7992 115.395 62.2127 111.89 62.5507 110.009C62.7505 108.895 62.54 108.707 62.4709 108.645C62.3596 108.544 62.189 108.558 62.0896 108.669C62.0022 108.77 62.0011 108.92 62.081 109.02C62.1555 109.275 62.0076 110.541 61.3629 112.011C60.7441 113.427 59.5627 115.283 57.4547 116.095C53.5185 117.607 49.2119 114.574 49.1687 114.543L48.9668 114.497L48.7919 114.611C48.7735 114.638 46.9345 117.314 44.5544 116.547C41.8816 115.687 42.7002 112.065 42.7369 111.912C42.7725 111.764 42.6829 111.617 42.5382 111.58C42.3892 111.552 42.2477 111.637 42.2121 111.783C42.2024 111.826 41.2402 116.055 44.3924 117.069C44.7552 117.186 45.1051 117.237 45.4377 117.237" fill="white"/>
<path d="M54.5831 151.95C55.2905 155.395 57.4254 166.049 58.0755 173.362C58.8843 182.51 61.9177 205.646 61.9177 205.646H89.1763C89.1763 205.646 87.8178 182.181 81.5177 153.809C78.237 139.025 74.5978 127.365 71.6897 119.209L55.5032 125.88L55.5712 126.681L54.5831 151.95" fill="#FCA032"/>
<path d="M54.583 152.228C54.7233 152.228 54.841 152.118 54.8518 151.974C54.8605 151.86 55.7114 140.486 55.9577 135.441C56.1769 130.977 55.868 126.964 55.7881 126.049L64.4478 121.993C64.5828 121.929 64.6421 121.767 64.5795 121.629C64.5168 121.491 64.3592 121.431 64.222 121.496L55.3896 125.632C55.2849 125.68 55.2233 125.792 55.2341 125.907C55.2395 125.952 55.665 130.395 55.4199 135.413C55.1726 140.452 54.3227 151.819 54.314 151.934C54.3022 152.083 54.4145 152.215 54.5635 152.227L54.583 152.228" fill="white"/>
<path d="M57.8055 65.826L65.8518 86.2609L68.1584 107.485C68.1584 107.485 63.3734 112.707 50.8359 113.307C38.2994 113.906 31.643 108.057 31.643 108.057C31.643 108.057 35.3935 65.5342 43.8458 64.8487C50.4385 64.3145 57.8055 65.826 57.8055 65.826" fill="#EA366E"/>
<path d="M89.1807 69.7626L97.849 82.6503C97.849 82.6503 89.8967 96.6777 75.4467 96.3168C57.9903 95.8825 55.7559 78.863 55.7559 78.863L55.9082 64.8488C55.9082 64.8488 61.9912 67.0074 65.8918 70.22C68.6552 72.497 80.7079 76.1593 89.1807 69.7626" fill="#EA366E"/>
<path d="M33.8558 124.439L34.0135 124.386C38.7218 120.933 40.5824 115.097 40.6602 114.849C40.7044 114.705 40.6257 114.551 40.4831 114.505C40.3449 114.461 40.1904 114.54 40.1451 114.684C40.1267 114.743 38.2574 120.597 33.697 123.943C33.5772 124.031 33.5502 124.202 33.6377 124.326L33.8558 124.439Z" fill="white"/>
<path d="M75.4616 74.3705C75.7715 75.7042 76.0793 77.6006 75.6689 78.3465C75.5922 78.4858 75.5004 78.5658 75.3784 78.5987C75.2704 78.6251 75.2359 78.5943 75.2175 78.5746C74.8277 78.1797 75.0847 76.1375 75.4616 74.3705V74.3705ZM75.305 79.157L75.5156 79.1285C75.7812 79.0572 75.9918 78.8839 76.1408 78.613C76.8892 77.2529 75.8288 73.5818 75.7056 73.1683C75.67 73.051 75.5696 72.983 75.4422 72.9731C75.3212 72.9753 75.2164 73.0598 75.1862 73.1782C74.9767 73.9921 73.9778 78.0931 74.8363 78.9629C74.9626 79.0912 75.1247 79.157 75.305 79.157" fill="#FFAF45"/>
<path d="M66.7729 94.3208L66.7923 94.3197C66.9403 94.3088 67.0526 94.1782 67.0418 94.028L66.6692 88.6601C66.9392 87.8616 69.776 79.0409 64.5116 74.397C64.3993 74.2993 64.2297 74.3081 64.1315 74.4244C64.0332 74.5385 64.0462 74.7107 64.1574 74.8105C69.3657 79.404 66.1746 88.4374 66.1422 88.5285L66.1271 88.6415L66.504 94.0664C66.5137 94.2111 66.6325 94.3208 66.7729 94.3208" fill="#FFAF45"/>
<path d="M3.85082 52.4865C3.85082 52.4865 11.9057 85.6546 32.5381 81.4384C54.1424 77.0248 30.901 62.811 30.901 62.811L13.5569 48.9186L3.85082 52.4865Z" fill="#FC8165"/>
<path d="M14.5009 51.2858C14.5009 51.2858 16.408 46.1395 16.3961 44.7015C16.3842 43.2636 14.3508 40.8494 14.3508 40.8494C14.3508 40.8494 11.4599 35.9587 10.0658 35.7766C8.6727 35.5934 7.38228 37.7454 7.38228 37.7454C7.38228 37.7454 1.12967 39.4784 -0.622993 42.8128C-2.37458 46.1471 6.29695 55.3089 6.29695 55.3089L12.718 55.2705L14.5009 51.2858" fill="#FC8165"/>
<path d="M-0.653279 45.1364C-0.653279 45.1364 1.06376 51.3565 3.73541 50.6567C6.40706 49.9558 10.2666 47.5505 10.2666 47.5505L7.82059 39.8979L-0.653279 45.1364" fill="#FC8165"/>
<path d="M11.2871 53.0956L11.5129 52.9716C11.5949 52.8444 11.5593 52.6744 11.4351 52.5921C8.56797 50.6968 11.1273 45.8598 11.1521 45.8115L11.1716 45.5922L11.0247 45.4287C10.9945 45.4156 7.94592 44.0215 8.71157 41.988C8.79472 41.7653 8.95351 41.614 9.19541 41.5262C10.6813 40.9866 14.5581 42.9181 15.9274 43.7089C16.057 43.7813 16.2212 43.7374 16.2946 43.6058C16.368 43.4742 16.3227 43.3064 16.1931 43.2318C15.9836 43.1111 11.0236 40.2758 9.01397 41.0107C8.61981 41.1544 8.34873 41.4165 8.20727 41.7917C7.49994 43.6727 9.30335 45.1677 10.5495 45.806C10.0182 46.9051 8.23428 51.129 11.1403 53.0506L11.2871 53.0956Z" fill="black"/>
<path d="M4.88112 48.335C5.63597 48.335 6.58517 48.1847 7.02577 47.5069C7.74606 46.3969 5.00423 41.2857 4.14787 39.7447C4.07444 39.613 3.91028 39.567 3.77961 39.6415C3.65003 39.7161 3.6047 39.8829 3.67705 40.0145C5.35736 43.0318 6.94265 46.6382 6.57441 47.2042C6.0971 47.9423 4.48263 47.8129 3.90057 47.7021C3.76019 47.6681 3.61333 47.7701 3.58525 47.9193C3.55718 48.0685 3.65326 48.2111 3.80012 48.2396C3.84332 48.2484 4.30554 48.335 4.88112 48.335Z" fill="black"/>
<path d="M1.75815 49.9847L1.78083 49.9836C1.83698 49.9781 3.1717 49.8575 3.80235 49.0754C4.06153 48.7541 4.16845 48.3713 4.11878 47.9391C3.93412 46.3213 0.570266 42.5394 0.42664 42.3793C0.327291 42.2685 0.155558 42.2587 0.0454096 42.3607C-0.0636594 42.4627 -0.0722626 42.636 0.0281672 42.7478C0.969832 43.803 3.44601 46.8039 3.58316 48.0027C3.61556 48.2846 3.55075 48.5226 3.38553 48.7267C2.90066 49.3299 1.74733 49.4363 1.73654 49.4374C1.58751 49.4506 1.47628 49.5833 1.48924 49.7335C1.50219 49.8772 1.61885 49.9847 1.75815 49.9847" fill="black"/>
<path d="M8.07654 47.4775C8.26444 47.4775 8.46097 47.4468 8.65751 47.37C9.35728 47.0947 9.83568 46.3204 10.0765 45.0711C10.1057 44.9219 10.0107 44.7782 9.86379 44.7486C9.72016 44.719 9.57544 44.8166 9.54736 44.9647C9.34434 46.0176 8.98042 46.6538 8.46531 46.8578C7.80118 47.121 7.04634 46.5693 7.03878 46.5639C6.91675 46.4772 6.75045 46.5013 6.66082 46.622C6.57335 46.7437 6.59816 46.9148 6.71803 47.0048C6.74934 47.0289 7.35517 47.4775 8.07654 47.4775" fill="black"/>
<path d="M8.9556 41.6116L9.06575 41.5886C9.20181 41.5271 9.26229 41.3648 9.2029 41.2266L7.62952 37.6345C7.56796 37.4963 7.41027 37.4349 7.27312 37.4952C7.13705 37.5567 7.0755 37.719 7.13597 37.8572L8.70941 41.4493C8.75476 41.5513 8.85193 41.6116 8.9556 41.6116Z" fill="black"/>
<path d="M56.9805 51.7508C56.9805 51.7508 61.5765 49.9465 61.8076 53.5211C62.0754 57.6616 57.2181 57.5278 57.2181 57.5278L56.9805 51.7508Z" fill="#FC8165"/>
<path d="M59.1189 55.5475L59.3467 55.418L60.9482 52.8416C61.0281 52.7144 60.9903 52.5444 60.864 52.4643C60.7376 52.3842 60.5702 52.4204 60.4925 52.5498L58.891 55.1274C58.8111 55.2546 58.8489 55.4235 58.9752 55.5036L59.1189 55.5475Z" fill="black"/>
<path d="M60.9037 54.8199C61.0452 54.8199 61.1651 54.7069 61.1726 54.5599C61.1802 54.4086 61.0657 54.2803 60.9167 54.2726L59.6262 54.2057C59.4653 54.1804 59.3509 54.3143 59.3433 54.4645C59.3347 54.6159 59.4502 54.7442 59.5992 54.7519L60.8897 54.8188L60.9037 54.8199Z" fill="black"/>
<path d="M48.5585 61.2778L48.3555 66.1071C48.3555 66.1071 50.1232 67.1732 52.3748 67.2928C55.4158 67.4518 56.5054 65.6212 56.5054 65.6212L56.6793 59.9583L48.5585 61.2778" fill="#FC8165"/>
<path d="M48.5594 61.2713C48.5594 61.2713 49.8823 65.2319 53.3531 64.8184C56.1522 64.485 57.0885 60.43 57.0885 60.43L48.5594 61.2713" fill="black"/>
<path d="M58.5549 47.8504C58.5549 47.8504 60.2396 56.7599 57.6133 60.5879C54.7958 64.6922 50.5335 63.2872 48.9644 61.9721C46.8489 60.1974 46.4839 57.8272 46.4839 57.8272C46.4839 57.8272 43.4754 58.3262 42.5639 55.8167C41.6061 53.1788 43.5391 51.1475 45.0369 51.0762C46.5358 51.0049 46.7009 51.2879 46.7009 51.2879L46.3565 48.4954C46.3565 48.4954 55.7925 38.5592 58.5549 47.8504" fill="#FC8165"/>
<path d="M46.0834 55.277L46.2821 55.1881C46.3825 55.0773 46.3761 54.904 46.2659 54.802L44.0295 52.7126C43.9193 52.6106 43.7487 52.6171 43.6482 52.7279C43.5467 52.8398 43.5543 53.0131 43.6645 53.1151L45.9009 55.2046L46.0834 55.277" fill="black"/>
<path d="M43.9407 55.5734L44.0951 55.5241L45.4925 54.5326C45.6134 54.4459 45.6448 54.2737 45.5595 54.1498C45.4731 54.0258 45.3035 53.9962 45.1826 54.0828L43.7852 55.0744C43.6642 55.161 43.6329 55.3321 43.7193 55.4572L43.9407 55.5734" fill="black"/>
<path d="M53.5561 56.7348C53.6781 56.7348 53.7894 56.6481 53.8185 56.522C54.3542 54.1912 53.6825 52.2608 53.6533 52.1796C53.6037 52.0371 53.4481 51.9614 53.3078 52.0162C53.1685 52.0667 53.0961 52.2235 53.1458 52.3661C53.1533 52.3848 53.7916 54.2307 53.2937 56.398C53.2603 56.545 53.3499 56.6931 53.4946 56.7271L53.5561 56.7348Z" fill="black"/>
<path d="M57.1824 50.128L57.366 50.0545C57.4762 49.9514 57.4827 49.7781 57.3801 49.6673C56.8099 49.0432 55.7613 48.939 55.717 48.9357C55.5507 48.9116 55.4384 49.0333 55.4244 49.1825C55.4104 49.3339 55.5194 49.4666 55.6674 49.4808C55.6771 49.4819 56.5561 49.5708 56.9859 50.0402L57.1824 50.128" fill="black"/>
<path d="M49.9451 50.2665L50.1374 50.1821C50.5704 49.7126 51.4538 49.6271 51.4613 49.626C51.606 49.6128 51.714 49.4823 51.7011 49.3353C51.687 49.1895 51.5736 49.0864 51.416 49.0929C51.3706 49.0973 50.3253 49.196 49.7529 49.8158C49.6536 49.9243 49.659 50.0932 49.7648 50.1942L49.9451 50.2665Z" fill="black"/>
<path d="M52.1328 59.0641L52.3271 59.0498C52.4751 59.0246 52.5755 58.8853 52.5518 58.7361C52.5291 58.5881 52.3974 58.4817 52.2451 58.508C52.1501 58.5179 51.298 58.6111 51.0248 57.4441C50.9902 57.2971 50.8477 57.205 50.6998 57.2411C50.5551 57.2762 50.4665 57.4232 50.5 57.5702C50.7786 58.7624 51.6026 59.0641 52.1328 59.0641" fill="black"/>
<path d="M55.9427 53.1389H55.9492C56.0971 53.1345 56.2159 53.0095 56.2127 52.8581L56.1813 51.5123L56.8531 51.0176C56.974 50.9288 56.9999 50.7566 56.9124 50.6348C56.825 50.512 56.6565 50.4845 56.5366 50.5734L55.7494 51.1536L55.6382 51.3818L55.6727 52.8713C55.677 53.0204 55.7958 53.1389 55.9427 53.1389" fill="black"/>
<path d="M50.662 52.9943H50.6685C50.8176 52.991 50.9353 52.8649 50.932 52.7146L50.9007 51.3918L51.5638 51.0375C51.6955 50.9673 51.7462 50.8017 51.6771 50.6679C51.608 50.5352 51.4449 50.4836 51.3132 50.5538L50.5022 50.9871C50.4115 51.0353 50.3554 51.1319 50.3575 51.2361L50.3921 52.7267C50.3964 52.8758 50.5152 52.9943 50.662 52.9943" fill="black"/>
<path d="M46.1935 51.4172C46.1935 51.4172 47.0066 53.8796 47.2971 53.9585C47.4742 54.0068 47.606 50.6121 47.606 50.6121C47.606 50.6121 51.1221 49.6809 53.3996 48.1958C55.6781 46.7096 56.2095 45.7817 56.2095 45.7817L59.0182 51.7572V53.0778L59.6111 51.2955L60.7202 51.5982C60.7202 51.5982 62.3313 44.2023 59.9199 41.9746C57.5064 39.7459 55.6922 41.231 55.6922 41.231C55.6922 41.231 52.7031 40.0749 50.7625 40.7462C48.8208 41.4174 47.7247 43.882 47.7247 43.882C47.7247 43.882 46.0337 43.553 44.6384 44.8527C43.2443 46.1524 43.511 51.7572 43.511 51.7572C43.511 51.7572 45.1341 50.6099 46.1935 51.4172" fill="black"/>
<path d="M48.3554 64.4838C48.3554 64.4838 41.9776 65.0509 32.7931 61.0102C23.6097 56.9706 17.6455 48.9188 17.6455 48.9188L2.04432 54.5466C2.04432 54.5466 6.39412 71.2326 16.0602 78.2534C26.6054 85.9104 42.3081 88.6228 42.3081 88.6228L48.3554 64.4838" fill="#EA366E"/>
<path d="M52.3142 67.6597C51.5324 68.5503 49.6285 70.3941 48.6825 69.9005C47.7916 69.4398 48.1761 67.5445 48.4936 66.5321C49.8618 67.4315 51.1576 67.7057 52.3142 67.6597ZM56.3606 66.1011C56.623 67.1178 56.9761 68.9748 56.5614 69.7206C56.4783 69.8698 56.3746 69.9564 56.2353 69.9915C55.5906 70.1571 53.9848 68.7236 52.9697 67.5971C54.5712 67.3569 55.799 66.5387 56.3606 66.1011V66.1011ZM56.1478 70.5487L56.366 70.5235C56.651 70.45 56.8746 70.2712 57.0312 69.9915C57.7094 68.7697 56.8627 65.8675 56.7655 65.5406L56.5755 65.3563L56.3196 65.4221C56.1738 65.5658 52.676 68.8782 48.5109 65.8817L48.2754 65.8433L48.1026 66.0089C48.0486 66.1526 46.8035 69.5418 48.4374 70.3897C49.8186 71.1103 51.9719 68.8706 52.6717 68.0754C53.3412 68.8059 55.0539 70.5487 56.1478 70.5487" fill="#FFAF45"/>
<path d="M78.4281 145.484C78.7099 145.484 78.8892 145.465 78.9194 145.461C79.0674 145.445 79.1743 145.31 79.1581 145.16C79.1419 145.009 79.022 144.895 78.8611 144.917C78.8287 144.918 75.6225 145.239 73.8677 142.743C72.155 140.306 74.6571 137.755 74.7651 137.646L74.8363 137.38L74.6409 137.186C74.4627 137.141 70.2749 136.026 69.6723 131.459C69.5201 130.303 69.749 129.422 70.3526 128.843C71.6993 127.548 74.4973 128.07 74.5253 128.074C74.6701 128.103 74.8126 128.004 74.8407 127.856C74.8687 127.708 74.7726 127.564 74.6269 127.536C74.4994 127.512 71.5319 126.957 69.9823 128.443C69.2447 129.151 68.9617 130.19 69.1378 131.532C69.6755 135.601 72.9368 137.154 74.0999 137.584C73.4098 138.431 71.8321 140.79 73.4293 143.062C74.9562 145.233 77.3892 145.484 78.4281 145.484" fill="#FFD39F"/>
<path d="M30.115 151.763C31.913 151.763 34.5469 151.174 36.0404 148.094C37.9539 144.147 35.5868 141.716 34.4897 140.858C35.2996 140.576 36.6807 139.848 36.9226 138.125C37.1915 136.205 35.2985 134.592 34.4194 133.957C35.9032 133.288 40.3837 131.053 40.6699 128.354C41.01 125.173 36.2002 122.268 35.9939 122.145C35.8665 122.073 35.7013 122.112 35.6246 122.244C35.5501 122.373 35.5933 122.542 35.7218 122.619C35.7682 122.646 40.4366 125.466 40.1342 128.296C39.8319 131.14 33.8158 133.624 33.7553 133.65C33.6603 133.688 33.5955 133.778 33.5868 133.882C33.5782 133.984 33.629 134.084 33.7164 134.138C33.7456 134.156 36.6786 135.974 36.3881 138.047C36.1008 140.096 33.9087 140.463 33.8147 140.476C33.7003 140.495 33.6106 140.584 33.5912 140.699C33.5696 140.814 33.6236 140.929 33.7251 140.987C33.8892 141.081 37.7476 143.333 35.5576 147.851C33.3514 152.401 28.5578 151.068 28.357 151.01C28.2101 150.965 28.0632 151.052 28.0222 151.199C27.9811 151.343 28.0643 151.495 28.2068 151.537C28.2284 151.542 29.0146 151.763 30.115 151.763" fill="white"/>
<path d="M96.1211 83.2699C97.0573 83.2699 97.8975 82.9244 97.9504 82.9025C98.0886 82.8455 98.1545 82.6853 98.0973 82.546C98.0411 82.4045 97.8824 82.3398 97.7463 82.3958C97.7291 82.4035 95.998 83.1076 94.9483 82.4199C94.1341 81.8847 94.7669 79.7075 95.052 78.9868L95.0185 78.7214L94.7809 78.6106C94.7561 78.6117 92.3879 78.7828 91.1817 77.6169C90.0381 76.5102 91.4635 73.9678 91.4775 73.9425L91.4808 73.6738L91.2551 73.5312C91.2421 73.5312 89.915 73.4665 89.3847 72.8172C88.9593 72.2951 89.2854 70.8319 89.4344 70.3603C89.4798 70.2166 89.3999 70.0619 89.2584 70.0159C89.118 69.972 88.9646 70.0499 88.9193 70.1936C88.8513 70.4085 88.28 72.3214 88.969 73.166C89.4409 73.7451 90.3091 73.959 90.8231 74.0358C90.429 74.8683 89.6536 76.8941 90.8102 78.0129C91.8738 79.0428 93.6179 79.17 94.4105 79.17C94.1093 80.0683 93.5574 82.1578 94.6557 82.8795C95.1028 83.1734 95.6254 83.2699 96.1211 83.2699" fill="#FFAF45"/>
<path d="M5.36932 56.2244C6.68246 56.2244 7.29584 54.6658 7.5291 53.8366C8.41893 54.7305 10.7979 56.8529 12.3454 55.7297C13.6888 54.7503 13.8972 52.5511 13.9102 51.4071C14.7104 52.2012 16.1877 53.4527 17.0656 52.9328C18.1833 52.267 17.9166 49.627 17.8831 49.3275C17.8658 49.1784 17.7481 49.0676 17.5839 49.0873C17.436 49.1049 17.3302 49.2409 17.3475 49.3912C17.4587 50.3838 17.4079 52.0938 16.7935 52.459C16.2298 52.7979 14.7201 51.5278 13.8216 50.5264C13.745 50.4386 13.6208 50.4134 13.515 50.4595C13.4091 50.5066 13.3443 50.6163 13.353 50.7337C13.3562 50.7666 13.6035 54.1382 12.0312 55.2833C10.7742 56.2003 8.39625 54.0176 7.58309 53.1039C7.51182 53.0282 7.40707 52.9975 7.3088 53.0249C7.20945 53.0535 7.13604 53.1368 7.1166 53.2399C7.11228 53.2641 6.66843 55.676 5.36932 55.676C3.93846 55.676 2.63826 54.6022 2.6253 54.5912C2.50759 54.4936 2.33805 54.5123 2.24517 54.6285C2.15014 54.7459 2.16635 54.9181 2.28082 55.0135C2.34021 55.064 3.74732 56.2244 5.36932 56.2244" fill="#FFAF45"/>
<rect x="86.5737" y="38.7203" width="39.859" height="62.5014" transform="rotate(-23.8326 86.5737 38.7203)" fill="white"/>
<rect x="92.4141" y="41.5146" width="30.4804" height="14.0452" transform="rotate(-23.8326 92.4141 41.5146)" fill="#BCC2D8"/>
<line x1="106.29" y1="56.1215" x2="128.452" y2="46.3317" stroke="#BCC2D8" stroke-width="1.05339"/>
<line x1="101.462" y1="61.9974" x2="130.11" y2="49.3428" stroke="#BCC2D8" stroke-width="0.861964"/>
<line x1="103.023" y1="65.5304" x2="131.671" y2="52.8759" stroke="#BCC2D8" stroke-width="0.861964"/>
<line x1="104.584" y1="69.0636" x2="133.231" y2="56.409" stroke="#BCC2D8" stroke-width="0.861964"/>
<line x1="106.144" y1="72.5968" x2="134.792" y2="59.9422" stroke="#BCC2D8" stroke-width="0.861964"/>
<line x1="107.705" y1="76.1298" x2="136.353" y2="63.4752" stroke="#BCC2D8" stroke-width="0.861964"/>
<line x1="109.266" y1="79.6629" x2="137.913" y2="67.0083" stroke="#BCC2D8" stroke-width="0.861964"/>
<line x1="110.827" y1="83.1957" x2="139.474" y2="70.5412" stroke="#BCC2D8" stroke-width="0.861964"/>
<line x1="112.387" y1="86.7289" x2="141.035" y2="74.0744" stroke="#BCC2D8" stroke-width="0.861964"/>
<line x1="113.948" y1="90.2621" x2="142.595" y2="77.6076" stroke="#BCC2D8" stroke-width="0.861964"/>
<path d="M97.2054 70.8672C97.2054 70.8672 105.815 67.6853 104.705 65.7724C103.596 63.8596 95.2508 64.3718 94.3016 65.2405C93.3513 66.1102 92.0306 68.815 92.0306 68.815L97.2054 70.8672Z" fill="#FC8165"/>
</g>
<mask id="mask1_0_139" style="mask-type:alpha" maskUnits="userSpaceOnUse" x="207" y="5" width="161" height="135">
<rect width="161" height="134.026" transform="matrix(1 8.74228e-08 8.74228e-08 -1 207 139.026)" fill="#D9D9D9"/>
</mask>
<g mask="url(#mask1_0_139)">
<path d="M231.516 67.8519C231.516 67.8519 240.334 81.1338 244.765 79.3877C249.196 77.6392 251.42 75.042 251.42 75.042C251.42 75.042 254.788 62.283 250.298 61.4256C243.276 60.0852 231.516 67.8519 231.516 67.8519" fill="#FC8165"/>
<rect width="34.8533" height="54.6522" transform="matrix(-0.986389 0.164426 0.164426 0.986389 252.396 14.2433)" fill="white"/>
<rect width="26.6526" height="12.2814" transform="matrix(-0.986389 0.164426 0.164426 0.986389 249.468 19.0892)" fill="#BCC2D8"/>
<line y1="-0.460553" x2="21.1854" y2="-0.460553" transform="matrix(-0.986389 0.164426 0.164426 0.986389 246.414 36.8798)" stroke="#BCC2D8" stroke-width="0.921105"/>
<line y1="-0.376858" x2="27.385" y2="-0.376858" transform="matrix(-0.986389 0.164426 0.164426 0.986389 252.749 38.7748)" stroke="#BCC2D8" stroke-width="0.753715"/>
<line y1="-0.376858" x2="27.385" y2="-0.376858" transform="matrix(-0.986389 0.164426 0.164426 0.986389 253.305 42.1063)" stroke="#BCC2D8" stroke-width="0.753715"/>
<line y1="-0.376858" x2="27.385" y2="-0.376858" transform="matrix(-0.986389 0.164426 0.164426 0.986389 253.86 45.4377)" stroke="#BCC2D8" stroke-width="0.753715"/>
<line y1="-0.376858" x2="27.385" y2="-0.376858" transform="matrix(-0.986389 0.164426 0.164426 0.986389 254.415 48.7691)" stroke="#BCC2D8" stroke-width="0.753715"/>
<line y1="-0.376858" x2="27.385" y2="-0.376858" transform="matrix(-0.986389 0.164426 0.164426 0.986389 254.971 52.1005)" stroke="#BCC2D8" stroke-width="0.753715"/>
<line y1="-0.376858" x2="27.385" y2="-0.376858" transform="matrix(-0.986389 0.164426 0.164426 0.986389 255.526 55.4319)" stroke="#BCC2D8" stroke-width="0.753715"/>
<line y1="-0.376858" x2="27.385" y2="-0.376858" transform="matrix(-0.986389 0.164426 0.164426 0.986389 256.081 58.7634)" stroke="#BCC2D8" stroke-width="0.753715"/>
<line y1="-0.376858" x2="27.385" y2="-0.376858" transform="matrix(-0.986389 0.164426 0.164426 0.986389 256.637 62.0948)" stroke="#BCC2D8" stroke-width="0.753715"/>
<line y1="-0.376858" x2="27.385" y2="-0.376858" transform="matrix(-0.986389 0.164426 0.164426 0.986389 257.192 65.4263)" stroke="#BCC2D8" stroke-width="0.753715"/>
<path d="M247.51 65.7458C247.51 65.7458 241.279 70.3162 243.872 75.6442C246.464 80.9722 251.79 73.4501 251.79 73.4501L252.697 69.2428L249.455 65.1642L247.51 65.7458Z" fill="#FC8165"/>
<path d="M243.529 73.8324L243.572 73.8286C243.74 73.8049 243.857 73.6464 243.834 73.4754C243.39 70.2617 245.972 67.4123 245.998 67.3849C246.113 67.2588 246.107 67.0616 245.983 66.9431C245.859 66.8257 245.664 66.832 245.549 66.958C245.435 67.0816 242.74 70.0495 243.225 73.564C243.246 73.7188 243.378 73.8324 243.529 73.8324" fill="black"/>
<path d="M246.471 67.4524C246.471 67.4524 240.678 58.3453 243.034 57.3618C245.389 56.3783 252.783 62.8159 253.063 64.3023C253.342 65.7875 252.697 69.2434 252.697 69.2434L246.471 67.4524Z" fill="#FC8165"/>
<path d="M249.325 240.001H280.368C280.368 240.001 278.873 200.929 280.368 194.101C281.594 188.506 285.34 181.237 286.682 178.757C286.975 178.2 287.155 177.889 287.155 177.889L298.835 241.143L332.614 238.288C332.614 238.288 312.868 133.961 311.002 129.028C309.136 124.096 275.933 132.261 275.933 132.261C275.933 132.261 271.78 138.517 266.706 146.747C260.06 157.534 251.842 171.722 249.325 179.68C244.89 193.712 249.325 240.001 249.325 240.001" fill="#8758E7"/>
<path d="M236.858 81.1696C236.858 81.1696 245.645 103.15 260.388 107.786C276.674 112.907 284.881 105.509 284.881 105.509L290.605 81.1696C290.605 81.1696 274.352 82.8782 267.111 79.0541C263.242 77.0098 255.415 68.8037 255.415 68.8037L236.858 81.1696" fill="#ADA4F7"/>
<path d="M326.752 139.265C327.048 140.661 329.523 143.189 329.523 143.189C329.523 143.189 330.929 148.146 332.46 148.309C333.992 148.47 335.3 145.925 335.3 145.925C335.3 145.925 338.523 146.912 339.656 146.524C340.789 146.133 346.264 144.924 347.226 141.85C348.19 138.773 341.707 126.897 341.707 126.897L329.372 127.392C329.372 127.392 326.457 137.87 326.752 139.265Z" fill="#FC8165"/>
<path d="M303.724 81.4312L287.149 83.6952L279.063 134.531C279.063 134.531 289.074 136.622 296.915 135.863C304.756 135.104 306.818 133.966 306.818 133.966L303.724 81.4312Z" fill="#FFAF45"/>
<path d="M291.215 81.0574C291.081 81.3981 290.971 81.7052 290.912 81.9872C290.912 81.9872 288.199 89.2585 285.67 108.552C284.032 121.045 283.188 132.325 282.659 137.448L272.154 136.03C272.154 136.03 276.072 90.1471 278.879 86.3654C280.997 83.5061 288.148 81.6203 291.215 81.0574Z" fill="#ADA4F7"/>
<path d="M348.692 128.028L324.817 130.547C324.817 130.547 323.362 121.457 320.707 117.265C318.303 113.466 314.585 112.949 314.585 112.949V137.448H298.837L301.061 84.1863L300.873 80.2112C309.168 79.9367 321.941 81.2609 332.288 89.9424C348.517 103.565 348.692 128.028 348.692 128.028" fill="#ADA4F7"/>
<path d="M301.674 75.1645L300.939 82.7977C300.939 82.7977 299.372 84.857 294.941 84.7833C291.64 84.7272 290.562 83.8623 290.562 83.8623L291.391 80.0407L292.205 76.3165L300.314 75.3317L301.674 75.1645" fill="#FC8165"/>
<path d="M300.314 75.3316C300.274 75.5375 300.172 75.7759 300.024 76.0467C297.975 79.6923 293.299 80.0567 291.391 80.0405L292.205 76.3163L300.314 75.3316" fill="black"/>
<path d="M292.205 58.7528C292.205 58.7528 287.339 67.9298 288.381 73.4013C289.424 78.8741 294.289 78.4323 297.244 77.6372C300.198 76.8435 301.675 75.1673 301.675 75.1673C301.675 75.1673 304.282 76.3143 306.28 73.9317C308.279 71.5479 307.41 68.5476 305.933 67.7538C304.455 66.96 302.544 67.9298 302.544 67.9298L304.194 65.2826C304.194 65.2826 299.328 50.7215 292.205 58.7528" fill="#FC8165"/>
<path d="M302.453 72.0866L302.608 72.0442L306.232 69.9075C306.379 69.8214 306.428 69.6304 306.343 69.4819C306.257 69.3309 306.071 69.2797 305.924 69.3683L302.299 71.505C302.153 71.5924 302.104 71.7821 302.189 71.9306L302.453 72.0866" fill="black"/>
<path d="M305.545 72.3503C305.669 72.3503 305.787 72.2717 305.832 72.1456C305.89 71.9834 305.809 71.8049 305.649 71.7463L303.475 70.9413C303.317 70.8776 303.141 70.9662 303.082 71.1272C303.024 71.2882 303.107 71.4679 303.266 71.5266L305.439 72.3304L305.545 72.3503" fill="black"/>
<path d="M298.141 63.4131L298.303 63.3657C298.447 63.2746 298.49 63.0811 298.402 62.9351C297.51 61.4911 296.123 61.5984 295.514 61.8605C295.357 61.9279 295.284 62.1102 295.351 62.2687C295.416 62.4284 295.595 62.5033 295.75 62.4359C295.803 62.4159 297.049 61.9167 297.881 63.2671L298.141 63.4131" fill="black"/>
<path d="M290.887 62.3292L291.059 62.2755C291.908 61.6952 292.692 62.2468 292.725 62.2693C292.862 62.3704 293.053 62.3379 293.152 62.1981C293.251 62.0596 293.221 61.8661 293.085 61.7651C293.038 61.7314 291.929 60.9264 290.714 61.7588C290.574 61.8549 290.538 62.0484 290.631 62.1907L290.887 62.3292Z" fill="black"/>
<path d="M291.895 71.0194L291.954 71.0131C292.12 70.9794 292.228 70.8172 292.197 70.6474C291.652 67.8018 293.286 65.9273 293.302 65.9085C293.415 65.78 293.407 65.584 293.282 65.468C293.154 65.3519 292.961 65.3606 292.849 65.4892C292.772 65.5728 290.989 67.6022 291.594 70.7673C291.623 70.9158 291.752 71.0194 291.895 71.0194" fill="black"/>
<path d="M290.567 65.9989C290.69 65.9989 290.806 65.9228 290.853 65.798L291.492 64.0944C291.552 63.9334 291.472 63.7524 291.315 63.6925C291.158 63.6326 290.98 63.7112 290.918 63.8722L290.279 65.5758C290.219 65.7368 290.298 65.9178 290.457 65.9789L290.567 65.9989" fill="black"/>
<path d="M295.313 66.5669C295.437 66.5669 295.553 66.4908 295.6 66.366L296.239 64.6624C296.299 64.5014 296.219 64.3217 296.061 64.2605C295.902 64.2031 295.725 64.2792 295.665 64.4402L295.026 66.1438C294.966 66.3048 295.045 66.4858 295.203 66.547L295.313 66.5669" fill="black"/>
<path d="M291.206 60.8308C291.206 60.8308 292.169 59.378 294.046 59.5503C295.921 59.7237 296.887 61.1727 296.887 61.1727C296.887 61.1727 295.755 64.2979 298.14 66.2536C300.525 68.2106 302.544 67.9298 302.544 67.9298L304.457 67.4443L306.078 64.8358L301.293 58.4482L294.995 55.1146L291.154 58.0164L291.206 60.8308" fill="black"/>
<path d="M293.444 72.9777C294.19 72.9777 295.265 72.6957 295.898 71.6161C295.984 71.4676 295.936 71.2766 295.789 71.188C295.643 71.1019 295.456 71.1493 295.369 71.2966C294.604 72.6083 293.097 72.3262 293.081 72.3225C292.919 72.2888 292.754 72.3986 292.721 72.5684C292.689 72.7381 292.797 72.9016 292.963 72.934C293.096 72.9603 293.261 72.9777 293.444 72.9777" fill="black"/>
<path d="M290.252 63.0998C290.252 63.0998 291.152 60.6187 292.419 59.0986C293.687 57.5784 298.629 59.9597 300.314 63.0998C301.998 66.24 302.544 67.9299 302.544 67.9299C302.544 67.9299 303.746 67.3358 305.368 67.7177C306.627 68.0147 306.858 68.6712 306.858 68.6712C306.858 68.6712 308.99 65.5099 309.161 64.8359C309.332 64.162 309.332 64.162 309.332 64.162C309.332 64.162 309.843 64.5613 310.696 63.4942C311.549 62.4296 311.52 55.6739 304.457 52.5562C297.394 49.4385 292.543 54.7004 290.885 56.9519C289.23 59.2046 290.252 63.0998 290.252 63.0998" fill="#EA366E"/>
<path d="M282.352 138.399L282.351 141.302L280.931 140.363L282.352 138.399ZM282.658 142.19L282.805 142.152C282.904 142.097 282.966 141.993 282.966 141.878V137.452V137.447C283.366 119.68 289.473 88.3968 290.262 84.4217C291.098 84.8498 293.236 85.7147 296.18 85.2192C300.068 84.5678 301.147 83.0401 301.192 82.974C301.288 82.8329 301.253 82.6383 301.114 82.5409C300.977 82.4423 300.786 82.4748 300.689 82.6183C300.679 82.6308 299.672 84.0024 296.079 84.604C292.551 85.1906 290.235 83.6954 290.213 83.6804L289.927 83.6542L289.745 83.8776C289.675 84.222 282.802 118.355 282.354 137.342L280.244 140.26L280.19 140.501L280.324 140.706L282.49 142.139L282.658 142.19" fill="#50447E"/>
<path d="M266.929 79.8503C267.188 81.6788 267.418 84.91 266.452 85.851C266.211 86.0869 265.901 86.1556 265.5 86.0619C265.102 85.9683 264.852 85.7687 264.738 85.4504C264.281 84.1761 265.897 81.3767 266.929 79.8503ZM265.819 86.7259C266.228 86.7259 266.587 86.5811 266.876 86.3016C268.433 84.7839 267.521 79.5857 267.412 78.9979C267.39 78.8768 267.3 78.7795 267.181 78.752C267.066 78.7208 266.94 78.7695 266.866 78.8681C266.511 79.3486 263.423 83.6095 264.161 85.6651C264.347 86.1805 264.761 86.5287 265.361 86.6698C265.519 86.7072 265.673 86.7259 265.819 86.7259Z" fill="#8758E7"/>
<path d="M324.939 112.651C325.103 112.651 325.257 112.698 325.401 112.792C325.623 112.935 325.645 113.063 325.64 113.159C325.592 114.02 323.282 115.542 321.411 116.553C322.165 115.143 323.506 113.033 324.651 112.694L324.939 112.651ZM320.707 117.579L320.841 117.548C321.728 117.11 326.16 114.844 326.254 113.195C326.268 112.935 326.19 112.562 325.731 112.266C325.352 112.022 324.93 111.964 324.479 112.097C322.511 112.678 320.514 116.953 320.429 117.135C320.374 117.255 320.398 117.397 320.492 117.489L320.707 117.579" fill="#8758E7"/>
<path d="M275.235 109.634C275.389 109.634 275.521 109.517 275.54 109.357L276.941 96.9078C276.959 96.7368 276.839 96.5821 276.67 96.5621C276.505 96.5409 276.351 96.6644 276.331 96.8367L274.93 109.287C274.911 109.457 275.032 109.613 275.2 109.632L275.235 109.634Z" fill="#8758E7"/>
<path d="M314.585 113.262C314.754 113.262 314.892 113.123 314.892 112.95V109.592C314.892 109.42 314.754 109.28 314.585 109.28C314.415 109.28 314.278 109.42 314.278 109.592V112.95C314.278 113.123 314.415 113.262 314.585 113.262Z" fill="#8758E7"/>
<path d="M309.332 64.4741L309.438 64.4541C309.596 64.3942 309.677 64.2158 309.619 64.0535L309.037 62.4498C308.978 62.29 308.799 62.2064 308.643 62.2663C308.484 62.3262 308.402 62.5047 308.461 62.6669L309.043 64.2694C309.089 64.3955 309.207 64.4741 309.332 64.4741" fill="#FFAF45"/>
<path d="M323.782 125.896L323.832 125.893L347.373 122.117C347.54 122.091 347.654 121.931 347.627 121.76C347.601 121.589 347.443 121.474 347.277 121.501L323.736 125.276C323.569 125.304 323.454 125.463 323.48 125.633C323.505 125.788 323.635 125.896 323.782 125.896" fill="#8758E7"/>
<path d="M311.804 97.1418C311.534 98.6183 310.201 104.802 306.789 105.129C306.206 105.191 305.691 105.007 305.22 104.582C303.242 102.794 302.846 97.4164 302.776 95.9661L311.804 97.1418ZM306.584 105.763L306.846 105.751C311.18 105.335 312.414 97.2629 312.464 96.9209L312.406 96.6863L312.2 96.564L302.494 95.3009L302.248 95.3783L302.147 95.6179C302.153 95.91 302.33 102.804 304.812 105.047C305.338 105.523 305.933 105.763 306.584 105.763" fill="#8758E7"/>
<path d="M239.057 86.1641L239.235 86.1067L258.547 72.0286C258.685 71.9275 258.717 71.734 258.618 71.5942C258.519 71.4507 258.327 71.422 258.19 71.5218L238.878 85.5988C238.74 85.6999 238.708 85.8946 238.808 86.0343L239.057 86.1641Z" fill="#8758E7"/>
</g>
</svg>
