<svg width="375" height="142" fill="none" xmlns="http://www.w3.org/2000/svg"><mask id="a" style="mask-type:alpha" maskUnits="userSpaceOnUse" x="214" y="7" width="161" height="135"><path transform="matrix(1 0 0 -1 214 141.026)" fill="#D9D9D9" d="M0 0h161v134.026H0z"/></mask><g mask="url(#a)"><path d="M242.597 69.784s8.948 13.269 13.444 11.525c4.496-1.747 6.753-4.342 6.753-4.342s3.418-12.747-1.138-13.603c-7.126-1.34-19.059 6.42-19.059 6.42" fill="#FC8165"/><path fill="#fff" d="m259.396 16.243-34.379 5.731 8.987 53.908 34.378-5.73z"/><path fill="#BCC2D8" d="m256.468 21.09-26.29 4.382 2.02 12.114 26.29-4.383z"/><path stroke="#BCC2D8" stroke-width=".921" d="m253.338 38.425-20.896 3.483"/><path stroke="#BCC2D8" stroke-width=".754" d="m259.687 40.403-27.012 4.503M260.243 43.734l-27.012 4.503M260.798 47.066l-27.012 4.503M261.353 50.397 234.341 54.9M261.909 53.729l-27.012 4.503M262.464 57.06l-27.012 4.503M263.019 60.392l-27.012 4.502M263.575 63.723l-27.012 4.503M264.13 67.054l-27.012 4.503"/><path d="M258.827 67.68s-6.323 4.566-3.692 9.889c2.63 5.322 8.034-2.192 8.034-2.192l.921-4.203-3.29-4.075-1.973.58Z" fill="#FC8165"/><path d="m254.787 75.759.043-.004a.312.312 0 0 0 .266-.353c-.45-3.21 2.169-6.057 2.196-6.085a.311.311 0 1 0-.455-.426c-.116.123-2.851 3.088-2.358 6.6a.31.31 0 0 0 .308.268" fill="#000"/><path d="M257.772 69.385s-5.878-9.099-3.488-10.081c2.39-.983 9.893 5.449 10.177 6.934.283 1.483-.371 4.936-.371 4.936l-6.318-1.79Z" fill="#FC8165"/><path d="M260.668 241.767h31.5s-1.518-39.034 0-45.855c1.244-5.59 5.044-12.852 6.406-15.329.298-.558.48-.868.48-.868l11.853 63.193 34.275-2.852s-20.036-104.227-21.93-109.155c-1.893-4.927-35.584 3.23-35.584 3.23s-4.215 6.25-9.363 14.472c-6.744 10.777-15.083 24.951-17.637 32.901-4.5 14.018 0 60.263 0 60.263" fill="#8758E7"/><path d="M248.017 83.089s8.917 21.959 23.877 26.59c16.526 5.116 24.853-2.274 24.853-2.274l5.808-24.316s-16.492 1.707-23.84-2.114c-3.925-2.042-11.867-10.24-11.867-10.24l-18.831 12.354" fill="#ADA4F7"/><path d="M339.234 141.128c.301 1.394 2.812 3.921 2.812 3.921s1.426 4.952 2.98 5.114c1.555.161 2.881-2.381 2.881-2.381s3.271.986 4.42.598c1.15-.39 6.706-1.598 7.682-4.669.978-3.074-5.601-14.939-5.601-14.939l-12.516.495s-2.957 10.467-2.658 11.861Z" fill="#FC8165"/><path d="m315.867 83.35-16.819 2.262-8.204 50.787s10.158 2.089 18.114 1.331c7.956-.758 10.049-1.896 10.049-1.896l-3.14-52.484Z" fill="#FFAF45"/><path d="M303.174 82.977c-.136.34-.247.647-.307.929 0 0-2.753 7.264-5.319 26.539-1.662 12.481-2.519 23.75-3.056 28.867l-10.66-1.416s3.977-45.838 6.824-49.616c2.15-2.857 9.406-4.741 12.518-5.303ZM361.497 129.902l-24.227 2.517s-1.476-9.081-4.171-13.27c-2.438-3.795-6.211-4.311-6.211-4.311v24.474h-15.98l2.257-53.21-.191-3.97c8.417-.275 21.379 1.048 31.877 9.721 16.467 13.61 16.646 38.049 16.646 38.049" fill="#ADA4F7"/><path d="m313.787 77.09-.746 7.625s-1.589 2.058-6.086 1.984c-3.35-.056-4.443-.92-4.443-.92l.841-3.818.826-3.72 8.228-.984 1.38-.168" fill="#FC8165"/><path d="M312.407 77.256c-.04.206-.144.444-.295.715-2.078 3.642-6.824 4.006-8.759 3.99l.826-3.72 8.228-.985" fill="#000"/><path d="M304.179 60.694s-4.938 9.168-3.881 14.634c1.059 5.467 5.995 5.026 8.994 4.232 2.998-.793 4.496-2.468 4.496-2.468s2.645 1.146 4.672-1.234c2.029-2.382 1.147-5.38-.351-6.172-1.5-.793-3.439.176-3.439.176l1.674-2.645s-4.937-14.547-12.165-6.523" fill="#FC8165"/><path d="m314.577 74.014.158-.042 3.677-2.134a.311.311 0 0 0 .113-.426.307.307 0 0 0-.425-.113l-3.678 2.134a.311.311 0 0 0-.113.426l.268.156" fill="#000"/><path d="M317.715 74.278a.312.312 0 0 0 .105-.604l-2.205-.804a.311.311 0 1 0-.212.585l2.204.803.108.02M310.202 65.35l.165-.048a.314.314 0 0 0 .099-.43c-.905-1.443-2.311-1.336-2.93-1.074a.31.31 0 0 0-.166.408c.067.16.249.234.406.167.053-.02 1.318-.519 2.162.83l.264.146M302.841 64.266l.174-.053c.862-.58 1.657-.029 1.691-.006a.31.31 0 0 0 .434-.072.31.31 0 0 0-.069-.432c-.047-.034-1.173-.838-2.405-.006a.313.313 0 0 0-.085.431l.26.138ZM303.865 72.948l.059-.006a.312.312 0 0 0 .246-.365c-.552-2.843 1.106-4.716 1.122-4.735a.313.313 0 0 0-.021-.44.309.309 0 0 0-.439.021c-.078.084-1.888 2.111-1.273 5.273.029.149.16.252.306.252M302.516 67.933a.311.311 0 0 0 .291-.201l.648-1.702a.312.312 0 0 0-.582-.222l-.648 1.702a.311.311 0 0 0 .18.403l.111.02M307.332 68.5a.312.312 0 0 0 .292-.2l.648-1.703a.311.311 0 0 0-.582-.221l-.649 1.701a.312.312 0 0 0 .18.403l.111.02" fill="#000"/><path d="M303.165 62.77s.977-1.452 2.881-1.28c1.903.173 2.883 1.621 2.883 1.621s-1.148 3.122 1.272 5.076c2.42 1.955 4.469 1.675 4.469 1.675l1.941-.485 1.645-2.606-4.856-6.382-6.39-3.33-3.898 2.899.053 2.812M305.436 74.905c.756 0 1.847-.282 2.49-1.36a.313.313 0 0 0-.11-.428.314.314 0 0 0-.427.108c-.776 1.31-2.305 1.029-2.321 1.025a.312.312 0 0 0-.12.61c.135.027.302.045.488.045" fill="#000"/><path d="M302.197 65.036s.913-2.478 2.199-3.997c1.286-1.519 6.301.86 8.011 3.997 1.709 3.138 2.263 4.826 2.263 4.826s1.219-.594 2.865-.212c1.278.296 1.512.952 1.512.952s2.164-3.158 2.337-3.831l.173-.674s.519.4 1.384-.667c.866-1.063.837-7.813-6.33-10.927-7.167-3.115-12.09 2.142-13.772 4.391-1.679 2.25-.642 6.142-.642 6.142" fill="#EA366E"/><path d="m294.181 140.263-.001 2.901-1.441-.939 1.442-1.962Zm.311 3.787.148-.037a.312.312 0 0 0 .163-.275v-4.426c.407-17.75 6.604-49.003 7.404-52.974.848.427 3.018 1.291 6.005.797 3.945-.651 5.04-2.178 5.086-2.244a.312.312 0 0 0-.08-.432.307.307 0 0 0-.431.077c-.01.013-1.031 1.383-4.677 1.984-3.58.586-5.93-.908-5.952-.923l-.291-.026-.185.223c-.071.344-7.044 34.445-7.499 53.413l-2.141 2.915-.055.241.136.205 2.198 1.431.171.051" fill="#50447E"/><path d="M278.531 81.77c.263 1.827.496 5.056-.484 5.996-.244.235-.559.304-.966.21-.404-.093-.657-.293-.773-.61-.464-1.274 1.175-4.07 2.223-5.595Zm-1.126 6.87c.415 0 .779-.145 1.072-.424 1.58-1.516.655-6.71.544-7.297a.31.31 0 0 0-.554-.13c-.36.48-3.494 4.737-2.744 6.79.188.516.608.864 1.217 1.005.161.037.316.056.465.056ZM337.394 114.54c.167 0 .323.047.469.14.225.144.248.271.243.367-.049.86-2.393 2.382-4.292 3.391.766-1.408 2.126-3.517 3.288-3.855l.292-.043Zm-4.294 4.923.135-.031c.901-.437 5.398-2.702 5.493-4.349.015-.259-.065-.632-.53-.927-.385-.245-.813-.302-1.271-.17-1.997.581-4.023 4.851-4.109 5.034a.312.312 0 0 0 .063.354l.219.089M286.959 111.526a.313.313 0 0 0 .31-.277l1.421-12.437a.313.313 0 0 0-.274-.346.31.31 0 0 0-.344.275l-1.422 12.438c-.02.17.104.326.273.345l.036.002ZM326.888 115.151c.172 0 .311-.14.311-.312v-3.355a.31.31 0 1 0-.623 0v3.355c0 .172.14.312.312.312Z" fill="#8758E7"/><path d="m321.557 66.41.108-.02a.312.312 0 0 0 .184-.4l-.591-1.603a.313.313 0 0 0-.585.217l.591 1.6a.313.313 0 0 0 .293.205" fill="#FFAF45"/><path d="m336.221 127.772.049-.003 23.888-3.772a.311.311 0 0 0-.097-.616l-23.888 3.772a.311.311 0 0 0 .048.619M324.066 99.046c-.274 1.475-1.627 7.653-5.088 7.979-.593.062-1.115-.122-1.593-.547-2.007-1.785-2.409-7.158-2.48-8.607l9.161 1.175Zm-5.297 8.613.266-.013c4.398-.415 5.65-8.48 5.701-8.821l-.059-.234-.209-.123-9.849-1.262-.25.078-.102.24c.006.29.186 7.179 2.704 9.419.534.475 1.138.716 1.798.716M250.249 88.079l.181-.058 19.596-14.064a.312.312 0 0 0-.363-.507l-19.596 14.064a.312.312 0 0 0-.071.435l.253.13Z" fill="#8758E7"/></g><mask id="b" style="mask-type:alpha" maskUnits="userSpaceOnUse" x="0" y="0" width="203" height="142"><path transform="matrix(-1 0 0 1 202.439 0)" fill="#D9D9D9" d="M0 0h202.439v141.294H0z"/></mask><g mask="url(#b)"><path d="M109.304 46.572s2.213 1.145 3.419 3.557c1.205 2.411.372 4.821.372 4.821s6.678 1.456 8.535 6.002c1.855 4.545-.557 8.071-.557 8.071s3.628 2.319 1.257 5.937c-2.371 3.618-24.635 0-24.635 0l7.524-29.78 4.085 1.392" fill="#000"/><path d="M93.292 46.572s-2.212 1.145-3.419 3.556c-1.205 2.412-.371 4.822-.371 4.822s-6.68 1.456-8.535 6.001c-1.855 4.546.556 8.072.556 8.072s-3.032 2.968-1.257 5.937c5.842 9.77 24.636 0 24.636 0l-7.525-29.78-4.085 1.392" fill="#000"/><path d="M156.501 78.937s-13 4.443-15.172.918c-2.171-3.525-2.371-6.47-2.371-6.47s4.269-10.495 7.832-8.72c5.569 2.777 9.711 14.272 9.711 14.272" fill="#FC8165"/><path d="M146.487 69.087s1.959 6.4-2.6 8.68c-4.558 2.279-4.36-5.666-4.36-5.666l1.548-3.353 4.362-1.082 1.05 1.421" fill="#FC8165"/><path d="m145.226 76.769.193-.081c2.158-2.149 1.825-5.596 1.809-5.743a.28.28 0 0 0-.299-.243.273.273 0 0 0-.245.3c.004.033.319 3.337-1.651 5.3a.273.273 0 0 0-.001.385l.194.082" fill="#000"/><path d="M71.269 204.434c-.285 1.209 26.2 1.903 27.102 1.014.911-.9 4.706-53.644 4.706-53.644s.115.49.297 1.368c.718 3.441 2.587 12.718 3.247 20.023.82 9.14 3.898 32.253 3.898 32.253h27.66s-1.379-23.442-7.771-51.787c-3.329-14.77-7.022-26.418-9.973-34.566-3.26-9.004-5.631-13.744-5.631-13.744s-32.241-13.106-34.44 4.626c-.719 5.767-8.81 93.237-9.095 94.457" fill="#FFAF45"/><path d="M93.797 117.124c1.856 0 3.235-1.518 3.692-2.096.974.623 4.911 2.895 8.695 1.467 3.201-1.211 4.635-4.713 4.978-6.592.203-1.112-.011-1.301-.081-1.362a.275.275 0 0 0-.387.024.272.272 0 0 0-.009.35c.076.255-.074 1.519-.729 2.989-.627 1.414-1.826 3.268-3.965 4.079-3.994 1.511-8.364-1.52-8.408-1.55l-.205-.046-.177.114c-.019.027-1.885 2.7-4.3 1.934-2.712-.859-1.882-4.478-1.844-4.631a.274.274 0 0 0-.202-.331.28.28 0 0 0-.33.203c-.01.042-.987 4.268 2.211 5.28.369.117.724.168 1.061.168" fill="#fff"/><path d="M103.077 151.803c.718 3.442 2.884 14.087 3.544 21.392.82 9.14 3.898 32.253 3.898 32.253h27.66s-1.379-23.443-7.771-51.787c-3.329-14.77-7.022-26.418-9.973-34.566l-16.424 6.664.069.8-1.003 25.244" fill="#FCA032"/><path d="M103.077 152.081a.274.274 0 0 0 .273-.253c.008-.114.872-11.477 1.122-16.518a73.497 73.497 0 0 0-.172-9.383l8.787-4.052a.273.273 0 0 0 .133-.363.27.27 0 0 0-.362-.133l-8.963 4.132a.273.273 0 0 0-.157.275c.005.045.437 4.484.188 9.497-.251 5.034-1.113 16.389-1.122 16.504a.275.275 0 0 0 .253.293l.02.001" fill="#fff"/><path d="m106.347 65.763 8.164 20.415 2.341 21.203s-4.855 5.217-17.577 5.816c-12.721.6-19.476-5.244-19.476-5.244s3.806-42.482 12.383-43.167c6.69-.533 14.165.977 14.165.977" fill="#EA366E"/><path d="m138.183 69.695 8.796 12.876s-8.069 14.014-22.732 13.653c-17.713-.434-19.98-17.437-19.98-17.437l.155-14s6.172 2.156 10.13 5.365c2.804 2.275 15.034 5.934 23.631-.457" fill="#EA366E"/><path d="m82.045 124.319.16-.053c4.777-3.449 6.665-9.28 6.744-9.528a.276.276 0 0 0-.18-.344.277.277 0 0 0-.342.18c-.019.058-1.916 5.907-6.543 9.249a.275.275 0 0 0-.06.383l.22.113Z" fill="#fff"/><path d="M124.263 74.299c.314 1.332.626 3.227.21 3.972-.078.14-.171.22-.295.252-.109.026-.144-.004-.163-.024-.396-.394-.135-2.435.248-4.2Zm-.159 4.782.213-.029c.27-.07.484-.244.635-.515.759-1.359-.317-5.026-.442-5.44-.036-.116-.138-.184-.267-.194a.274.274 0 0 0-.26.205c-.212.813-1.226 4.91-.355 5.779a.657.657 0 0 0 .476.194M115.446 94.23l.02-.001a.273.273 0 0 0 .253-.292l-.378-5.362c.274-.798 3.152-9.61-2.19-14.25a.273.273 0 0 0-.359.413c5.285 4.59 2.047 13.614 2.014 13.705l-.015.113.382 5.42c.01.144.131.254.273.254" fill="#FFAF45"/><path d="M51.599 52.436s8.173 33.136 29.109 28.924c21.922-4.41-1.661-18.61-1.661-18.61l-17.6-13.879-9.848 3.565Z" fill="#FC8165"/><path d="M62.405 51.236s1.936-5.141 1.923-6.578c-.012-1.436-2.075-3.848-2.075-3.848s-2.933-4.886-4.348-5.068c-1.414-.183-2.723 1.967-2.723 1.967s-6.345 1.731-8.123 5.063c-1.777 3.33 7.022 12.484 7.022 12.484l6.515-.039 1.81-3.98" fill="#FC8165"/><path d="M47.028 45.093s1.743 6.214 4.453 5.515c2.712-.7 6.628-3.103 6.628-3.103l-2.482-7.646-8.599 5.234" fill="#FC8165"/><path d="m59.144 53.044.23-.123a.274.274 0 0 0-.08-.38c-2.909-1.893-.312-6.725-.287-6.774l.02-.219-.149-.163c-.03-.013-3.124-1.406-2.347-3.437a.764.764 0 0 1 .49-.462c1.509-.539 5.442 1.39 6.832 2.18a.275.275 0 0 0 .372-.102.274.274 0 0 0-.103-.374c-.212-.12-5.245-2.953-7.284-2.219-.4.144-.675.406-.819.78-.718 1.88 1.112 3.373 2.377 4.01-.54 1.099-2.35 5.319.6 7.238l.148.045ZM52.644 48.288c.766 0 1.73-.15 2.176-.827.731-1.109-2.051-6.215-2.92-7.755a.274.274 0 0 0-.478.27c1.705 3.014 3.314 6.617 2.94 7.183-.484.737-2.122.608-2.713.497-.142-.034-.291.068-.32.217a.273.273 0 0 0 .218.32 6.31 6.31 0 0 0 1.097.096Z" fill="#000"/><path d="m49.475 49.937.023-.002c.057-.005 1.412-.126 2.052-.907a1.46 1.46 0 0 0 .32-1.135c-.187-1.616-3.6-5.395-3.746-5.554a.275.275 0 0 0-.387-.02.275.275 0 0 0-.017.388c.955 1.054 3.468 4.052 3.607 5.25a.917.917 0 0 1-.2.723c-.492.602-1.663.709-1.674.71a.274.274 0 0 0 .022.547M55.886 47.432c.191 0 .39-.03.59-.108.71-.275 1.196-1.048 1.44-2.296a.274.274 0 1 0-.537-.107c-.206 1.052-.575 1.688-1.098 1.892-.674.263-1.44-.288-1.447-.294a.279.279 0 0 0-.384.058.274.274 0 0 0 .058.383c.032.024.646.472 1.378.472M56.779 41.572l.111-.024a.275.275 0 0 0 .14-.361l-1.597-3.589a.274.274 0 0 0-.5.222l1.596 3.59a.273.273 0 0 0 .25.162Z" fill="#000"/><path d="M105.51 51.701s4.663-1.803 4.898 1.769c.272 4.136-4.657 4.002-4.657 4.002l-.241-5.771Z" fill="#FC8165"/><path d="m107.679 55.494.232-.13 1.625-2.573a.273.273 0 0 0-.086-.377.272.272 0 0 0-.377.085l-1.625 2.575a.272.272 0 0 0 .086.376l.145.044Z" fill="#000"/><path d="M109.491 54.767a.273.273 0 0 0 .013-.547l-1.31-.066c-.163-.026-.279.108-.287.258a.273.273 0 0 0 .26.287l1.309.067.015.001Z" fill="#000"/><path d="m96.964 61.219-.206 4.824s1.794 1.066 4.078 1.185c3.086.159 4.192-1.67 4.192-1.67l.176-5.657-8.24 1.318" fill="#FC8165"/><path d="M96.965 61.212s1.342 3.957 4.864 3.544c2.84-.333 3.79-4.384 3.79-4.384l-8.654.84" fill="#000"/><path d="M107.107 47.804s1.71 8.901-.955 12.725c-2.859 4.1-7.184 2.697-8.776 1.383-2.147-1.773-2.517-4.14-2.517-4.14s-3.053.498-3.978-2.01c-.972-2.634.99-4.664 2.51-4.735 1.52-.071 1.688.212 1.688.212l-.35-2.79s9.575-9.927 12.378-.645" fill="#FC8165"/><path d="m94.452 55.224.202-.089a.272.272 0 0 0-.016-.386l-2.27-2.087a.275.275 0 0 0-.387.015.273.273 0 0 0 .017.387l2.27 2.087.184.073" fill="#000"/><path d="m92.278 55.52.157-.05 1.418-.99a.277.277 0 0 0 .068-.382.275.275 0 0 0-.383-.067l-1.418.99a.275.275 0 0 0-.067.383l.225.116M102.035 56.68a.275.275 0 0 0 .266-.212c.544-2.329-.138-4.258-.167-4.339a.27.27 0 0 0-.351-.163.273.273 0 0 0-.164.35c.007.018.655 1.862.15 4.028a.274.274 0 0 0 .203.328l.063.008ZM105.715 50.08l.186-.074a.272.272 0 0 0 .014-.386c-.578-.624-1.642-.728-1.687-.731-.169-.025-.283.097-.297.246a.272.272 0 0 0 .246.298c.01.001.902.09 1.338.559l.2.088M98.37 50.218l.196-.084c.44-.47 1.336-.555 1.343-.556a.269.269 0 0 0 .244-.29c-.015-.146-.13-.249-.29-.242-.046.004-1.106.103-1.687.722a.268.268 0 0 0 .012.378l.183.072ZM100.591 59.007l.197-.014a.275.275 0 0 0 .228-.313.268.268 0 0 0-.311-.228c-.097.01-.961.103-1.239-1.063a.274.274 0 0 0-.533.126c.284 1.19 1.12 1.492 1.658 1.492M104.457 53.088h.006a.276.276 0 0 0 .268-.28l-.032-1.345.681-.495a.274.274 0 0 0-.321-.443l-.799.58-.112.227.035 1.488c.004.15.125.268.274.268M99.098 52.943h.007a.274.274 0 0 0 .267-.28l-.032-1.32.673-.355a.273.273 0 1 0-.254-.483l-.823.433a.274.274 0 0 0-.147.249l.035 1.489a.274.274 0 0 0 .274.267" fill="#000"/><path d="M94.564 51.368s.825 2.46 1.12 2.539c.18.048.313-3.344.313-3.344s3.568-.93 5.879-2.414c2.312-1.484 2.851-2.411 2.851-2.411l2.85 5.97v1.319l.602-1.78 1.125.301s1.635-7.388-.812-9.614c-2.449-2.226-4.29-.743-4.29-.743s-3.033-1.155-5.002-.484c-1.97.67-3.082 3.133-3.082 3.133s-1.716-.329-3.132.97c-1.415 1.298-1.144 6.897-1.144 6.897s1.647-1.146 2.722-.34" fill="#000"/><path d="M96.758 64.422s-6.472.566-15.791-3.47c-9.319-4.036-15.37-12.08-15.37-12.08l-15.831 5.622s4.413 16.67 14.222 23.684c10.7 7.65 26.633 10.36 26.633 10.36l6.137-24.116" fill="#EA366E"/><path d="M100.775 67.594c-.794.89-2.725 2.732-3.685 2.24-.904-.461-.514-2.355-.192-3.366 1.388.899 2.703 1.172 3.877 1.126Zm4.106-1.557c.266 1.016.624 2.871.203 3.616a.51.51 0 0 1-.331.271c-.654.166-2.283-1.267-3.313-2.392 1.625-.24 2.871-1.057 3.441-1.495Zm-.216 4.444.221-.025a1.06 1.06 0 0 0 .675-.532c.688-1.22-.171-4.12-.269-4.447l-.193-.184-.26.066c-.148.144-3.697 3.453-7.924.46l-.238-.04-.176.166c-.055.144-1.318 3.53.34 4.377 1.401.72 3.586-1.518 4.296-2.312.68.73 2.418 2.47 3.528 2.47" fill="#FFAF45"/><path d="M127.273 145.344c.286 0 .468-.02.498-.023a.272.272 0 0 0 .242-.301c-.016-.15-.138-.264-.301-.242-.033.001-3.286.321-5.067-2.172-1.738-2.435.801-4.984.911-5.092l.072-.266-.198-.194c-.181-.045-4.43-1.159-5.042-5.721-.154-1.155.078-2.035.69-2.614 1.367-1.294 4.206-.772 4.235-.768a.274.274 0 0 0 .103-.538c-.13-.024-3.141-.579-4.713.906-.749.708-1.036 1.746-.857 3.086.545 4.065 3.855 5.617 5.035 6.046-.7.846-2.301 3.203-.681 5.474 1.55 2.168 4.019 2.419 5.073 2.419" fill="#FFD39F"/><path d="M78.25 151.617c1.823 0 4.496-.589 6.012-3.666 1.941-3.942-.46-6.372-1.574-7.229.822-.281 2.223-1.009 2.469-2.73.273-1.918-1.648-3.53-2.54-4.164 1.505-.669 6.052-2.901 6.342-5.597.345-3.178-4.535-6.081-4.745-6.204a.278.278 0 0 0-.374.099.276.276 0 0 0 .098.375c.047.027 4.784 2.844 4.478 5.671-.307 2.842-6.412 5.324-6.473 5.349a.273.273 0 0 0-.04.488c.03.018 3.006 1.834 2.711 3.905-.291 2.047-2.516 2.414-2.61 2.427a.272.272 0 0 0-.228.222.272.272 0 0 0 .136.289c.167.093 4.082 2.343 1.86 6.857-2.239 4.545-7.103 3.214-7.307 3.156a.27.27 0 0 0-.34.188.274.274 0 0 0 .188.338c.022.005.82.226 1.936.226M101.231 176.496a.274.274 0 0 0 .012-.547c-.057-.003-5.77-.306-7.222-2.925-.307-.554-.368-1.102-.184-1.669.539-1.682 3.013-2.878 3.038-2.89a.273.273 0 0 0-.061-.515c-.096-.019-9.482-2.082-10.349-9.768-.212-1.891.236-3.473 1.333-4.704 2.618-2.93 8.104-2.968 8.159-2.968l.225-.118.03-.252c-.018-.051-1.902-5.101-.489-7.467.396-.664 1.005-1.042 1.862-1.156 4.419-.605 5.547 5.108 5.591 5.351a.275.275 0 0 0 .319.219.273.273 0 0 0 .22-.318c-.013-.065-1.242-6.448-6.202-5.796-1.02.136-1.779.614-2.26 1.419-1.331 2.229-.103 6.336.32 7.581-1.339.059-5.785.458-8.182 3.139-1.207 1.353-1.702 3.078-1.47 5.133.77 6.823 7.856 9.41 10.103 10.063-.839.501-2.276 1.527-2.709 2.88-.228.71-.152 1.417.227 2.102 1.599 2.885 7.428 3.195 7.676 3.205l.013.001" fill="#fff"/><path d="M145.226 83.19c.95 0 1.802-.345 1.856-.367a.273.273 0 0 0-.207-.506c-.018.007-1.774.71-2.839.024-.826-.535-.184-2.71.105-3.43l-.034-.265-.241-.111c-.025.001-2.428.172-3.652-.993-1.161-1.106.286-3.645.3-3.67l.003-.27-.229-.142c-.013 0-1.36-.064-1.898-.713-.431-.522-.1-1.983.051-2.454a.275.275 0 0 0-.523-.167c-.069.215-.649 2.126.051 2.97.478.578 1.359.792 1.881.868-.4.832-1.187 2.856-.013 3.974 1.079 1.029 2.849 1.156 3.653 1.156-.306.897-.866 2.985.249 3.706.454.293.984.39 1.487.39M53.14 56.17c1.332 0 1.954-1.557 2.191-2.385.903.893 3.317 3.013 4.887 1.891 1.363-.979 1.575-3.175 1.588-4.318.812.793 2.31 2.043 3.202 1.524 1.134-.665.863-3.303.83-3.602a.264.264 0 0 0-.304-.24.273.273 0 0 0-.24.304c.113.991.061 2.7-.562 3.064-.572.34-2.104-.93-3.016-1.93a.272.272 0 0 0-.311-.067.276.276 0 0 0-.165.274c.004.033.255 3.401-1.34 4.545-1.276.916-3.69-1.264-4.514-2.177a.282.282 0 0 0-.279-.08.276.276 0 0 0-.195.216c-.004.024-.454 2.433-1.773 2.433-1.451 0-2.77-1.072-2.784-1.083a.273.273 0 0 0-.386.037.273.273 0 0 0 .037.385c.06.05 1.488 1.21 3.133 1.21" fill="#FFAF45"/><path fill="#fff" d="m133.574 38.72 36.46-16.106 25.255 57.172-36.46 16.106z"/><path fill="#BCC2D8" d="m139.414 41.515 27.881-12.316 5.675 12.847-27.88 12.316z"/><path stroke="#BCC2D8" stroke-width="1.053" d="m153.29 56.121 22.162-9.789"/><path stroke="#BCC2D8" stroke-width=".862" d="m148.462 61.997 28.648-12.654M150.023 65.53l28.648-12.654M151.584 69.064l28.647-12.655M153.145 72.597l28.647-12.655M154.705 76.13l28.648-12.655M156.266 79.663l28.647-12.655M157.827 83.196l28.647-12.655M159.387 86.729l28.648-12.655M160.948 90.262l28.647-12.654"/><path d="M146.326 70.799s8.737-3.179 7.61-5.09c-1.125-1.91-9.593-1.4-10.556-.531-.965.869-2.305 3.57-2.305 3.57l5.251 2.051Z" fill="#FC8165"/></g></svg>