<svg width="39" height="39" viewBox="0 0 39 39" fill="none" xmlns="http://www.w3.org/2000/svg">
<path d="M38.8984 19.4484C38.8984 30.19 30.1906 38.8975 19.4489 38.8975C8.70719 38.8975 -0.000167847 30.19 -0.000167847 19.4484C-0.000167847 8.70674 8.70719 -0.000389099 19.4489 -0.000389099C30.1906 -0.000389099 38.8984 8.70674 38.8984 19.4484Z" fill="#3C3C3C"/>
<path d="M35.9329 19.449C35.9329 28.553 28.5528 35.9326 19.4489 35.9326C10.3455 35.9326 2.96524 28.553 2.96524 19.449C2.96524 10.3449 10.3455 2.96532 19.4489 2.96532C28.5528 2.96532 35.9329 10.3449 35.9329 19.449Z" fill="white"/>
<path d="M19.2505 37.5889C9.32255 37.4824 1.30862 29.4017 1.30862 19.449C1.30862 9.4303 9.43002 1.30851 19.4491 1.30851C29.4682 1.30851 37.5899 9.4303 37.5899 19.449C37.5899 20.9531 37.4067 22.4155 37.0613 23.813H35.3491C35.7297 22.4234 35.9331 20.9598 35.9331 19.449C35.9331 10.3449 28.553 2.96533 19.4491 2.96533C10.3457 2.96533 2.96544 10.3449 2.96544 19.449C2.96544 28.553 10.3457 35.9326 19.4491 35.9326C19.4819 35.9326 19.514 35.9326 19.5467 35.9326L19.2505 37.5889Z" fill="black"/>
<path d="M19.4489 35.9326C10.3455 35.9326 2.96524 28.553 2.96524 19.449C2.96524 10.3449 10.3455 2.96532 19.4489 2.96532C28.5528 2.96532 35.9329 10.3449 35.9329 19.449C35.9329 20.9598 35.7295 22.4233 35.3489 23.813H33.941C34.3566 22.4312 34.5799 20.9666 34.5799 19.449C34.5799 11.0922 27.8056 4.31783 19.4489 4.31783C11.0924 4.31783 4.31831 11.0922 4.31831 19.449C4.31831 27.8058 11.0924 34.5795 19.4489 34.5795C19.5627 34.5795 19.676 34.5784 19.7892 34.5762L19.5465 35.9326C19.5138 35.9326 19.4817 35.9326 19.4489 35.9326Z" fill="#D5D9DB"/>
<path d="M18.8291 19.5191L19.1058 19.6571L15.5436 26.7764L15.2663 26.6372L18.8291 19.5191Z" fill="#3C3C3C"/>
<path d="M25.653 18.9354L20.0912 18.9376C20.0054 18.4682 19.5968 18.1126 19.1031 18.1126C18.8672 18.1126 18.6536 18.1971 18.4819 18.3329L11.8354 15.1382L11.6413 15.5406L18.1951 18.6919C18.1343 18.8221 18.0971 18.9658 18.0971 19.1191C18.0971 19.6747 18.5475 20.125 19.1031 20.125C19.4529 20.125 19.761 19.9464 19.9409 19.6753L25.653 19.6736V18.9354Z" fill="#3C3C3C"/>
<path d="M19.7111 8.89355H19.1877V4.83998H19.7111V8.89355Z" fill="#3C3C3C"/>
<path d="M19.7111 34.0576H19.1877V29.3453H19.7111V34.0576Z" fill="#3C3C3C"/>
<path d="M9.26379 19.71H4.84009V19.1864H9.26379V19.71Z" fill="#3C3C3C"/>
<path d="M34.058 19.71H29.9222V19.1864H34.058V19.71Z" fill="#3C3C3C"/>
<path d="M9.29583 14.3828L6.40863 12.8584L6.65321 12.3963L9.54007 13.9207L9.29583 14.3828Z" fill="#3C3C3C"/>
<path d="M32.2459 26.502L29.3586 24.977L29.6028 24.5143L32.4893 26.0387L32.2459 26.502Z" fill="#3C3C3C"/>
<path d="M13.1526 10.0098L11.4045 7.25234L11.8467 6.97227L13.5945 9.72912L13.1526 10.0098Z" fill="#3C3C3C"/>
<path d="M27.052 31.9268L25.3037 29.1693L25.7455 28.8893L27.494 31.6461L27.052 31.9268Z" fill="#3C3C3C"/>
<path d="M12.2988 32.1914L11.8475 31.9265L13.4954 29.1088L13.9471 29.3731L12.2988 32.1914Z" fill="#3C3C3C"/>
<path d="M25.4028 9.78906L24.9508 9.52533L26.5991 6.70648L27.0505 6.97078L25.4028 9.78906Z" fill="#3C3C3C"/>
<path d="M6.97433 27.0557L6.70992 26.6037L9.52758 24.9542L9.79171 25.4062L6.97433 27.0557Z" fill="#3C3C3C"/>
<path d="M29.3704 13.9434L29.1059 13.4914L31.9234 11.8419L32.1877 12.2933L29.3704 13.9434Z" fill="#3C3C3C"/>
</svg>
