<svg width="16" height="14" viewBox="0 0 16 14" fill="none" xmlns="http://www.w3.org/2000/svg">
<path d="M3.73334 6.99998C3.73334 6.30664 3.30667 5.71998 2.66667 5.50664V3.69331C3.30667 3.47998 3.73334 2.89331 3.73334 2.19998C3.73334 1.29331 3.04001 0.599976 2.13334 0.599976C1.22667 0.599976 0.53334 1.29331 0.53334 2.19998C0.53334 2.89331 0.960007 3.47998 1.60001 3.69331V5.50664C0.960007 5.71998 0.53334 6.30664 0.53334 6.99998C0.53334 7.69331 0.960007 8.27998 1.60001 8.49331V10.3066C0.960007 10.52 0.53334 11.1066 0.53334 11.8C0.53334 12.7066 1.22667 13.4 2.13334 13.4C3.04001 13.4 3.73334 12.7066 3.73334 11.8C3.73334 11.1066 3.30667 10.52 2.66667 10.3066V8.49331C3.30667 8.27998 3.73334 7.69331 3.73334 6.99998ZM14.9333 2.73331H6.40001C6.08001 2.73331 5.86667 2.51998 5.86667 2.19998C5.86667 1.87998 6.08001 1.66664 6.40001 1.66664H14.9333C15.2533 1.66664 15.4667 1.87998 15.4667 2.19998C15.4667 2.51998 15.2533 2.73331 14.9333 2.73331ZM14.9333 7.53331H6.40001C6.08001 7.53331 5.86667 7.31998 5.86667 6.99998C5.86667 6.67998 6.08001 6.46664 6.40001 6.46664H14.9333C15.2533 6.46664 15.4667 6.67998 15.4667 6.99998C15.4667 7.31998 15.2533 7.53331 14.9333 7.53331ZM14.9333 12.3333H6.40001C6.08001 12.3333 5.86667 12.12 5.86667 11.8C5.86667 11.48 6.08001 11.2666 6.40001 11.2666H14.9333C15.2533 11.2666 15.4667 11.48 15.4667 11.8C15.4667 12.12 15.2533 12.3333 14.9333 12.3333Z" fill="#D9D9D9"/>
</svg>
