<svg width="20" height="21" viewBox="0 0 20 21" fill="none" xmlns="http://www.w3.org/2000/svg">
<path d="M19 19.75H1V16.25C1 15.25 4.16216 12.25 10 12.25C15.8378 12.25 19 15.25 19 16.25V19.75Z" fill="black"/>
<path d="M10 9.5C12.3472 9.5 14.25 7.59721 14.25 5.25C14.25 2.90279 12.3472 1 10 1C7.65279 1 5.75 2.90279 5.75 5.25C5.75 7.59721 7.65279 9.5 10 9.5Z" fill="black"/>
<path d="M19 19.75H1V16.25C1 15.25 4.16216 12.25 10 12.25C15.8378 12.25 19 15.25 19 16.25V19.75Z" stroke="black" stroke-width="1.5"/>
<path d="M10 9.5C12.3472 9.5 14.25 7.59721 14.25 5.25C14.25 2.90279 12.3472 1 10 1C7.65279 1 5.75 2.90279 5.75 5.25C5.75 7.59721 7.65279 9.5 10 9.5Z" stroke="black" stroke-width="1.5"/>
</svg>
