<svg width="15" height="12" viewBox="0 0 15 12" fill="none" xmlns="http://www.w3.org/2000/svg">
<path d="M3.5 3.8325C4.16328 3.525 4.875 2.82 4.875 2C4.875 0.895 4.03594 0 3 0C1.96406 0 1.125 0.895 1.125 2C1.125 2.82 1.83672 3.525 2.5 3.8325V5.5H0.75C0.335156 5.5 0 5.5575 0 6C0 6.4425 0.335156 6.5 0.75 6.5H7V8.1675C6.33672 8.475 5.625 9.18 5.625 10C5.625 11.105 6.46406 12 7.5 12C8.53594 12 9.375 11.105 9.375 10C9.375 9.18 8.66328 8.475 8 8.1675V6.5H14.25C14.6648 6.5 15 6.4425 15 6C15 5.5575 14.6648 5.5 14.25 5.5H12.5V3.8325C13.1633 3.525 13.875 2.82 13.875 2C13.875 0.895 13.0359 0 12 0C10.9641 0 10.125 0.895 10.125 2C10.125 2.82 10.8367 3.525 11.5 3.8325V5.5H3.5V3.8325Z" fill="#D9D9D9"/>
</svg>
