<svg width="16" height="14" viewBox="0 0 16 14" fill="none" xmlns="http://www.w3.org/2000/svg">
<path d="M3.73333 7C3.73333 6.30667 3.30666 5.72 2.66666 5.50667V3.69333C3.30666 3.48 3.73333 2.89333 3.73333 2.2C3.73333 1.29333 3.03999 0.6 2.13333 0.6C1.22666 0.6 0.533325 1.29333 0.533325 2.2C0.533325 2.89333 0.959992 3.48 1.59999 3.69333V5.50667C0.959992 5.72 0.533325 6.30667 0.533325 7C0.533325 7.69333 0.959992 8.28 1.59999 8.49333V10.3067C0.959992 10.52 0.533325 11.1067 0.533325 11.8C0.533325 12.7067 1.22666 13.4 2.13333 13.4C3.03999 13.4 3.73333 12.7067 3.73333 11.8C3.73333 11.1067 3.30666 10.52 2.66666 10.3067V8.49333C3.30666 8.28 3.73333 7.69333 3.73333 7ZM14.9333 2.73333H6.39999C6.07999 2.73333 5.86666 2.52 5.86666 2.2C5.86666 1.88 6.07999 1.66667 6.39999 1.66667H14.9333C15.2533 1.66667 15.4667 1.88 15.4667 2.2C15.4667 2.52 15.2533 2.73333 14.9333 2.73333ZM14.9333 7.53333H6.39999C6.07999 7.53333 5.86666 7.32 5.86666 7C5.86666 6.68 6.07999 6.46667 6.39999 6.46667H14.9333C15.2533 6.46667 15.4667 6.68 15.4667 7C15.4667 7.32 15.2533 7.53333 14.9333 7.53333ZM14.9333 12.3333H6.39999C6.07999 12.3333 5.86666 12.12 5.86666 11.8C5.86666 11.48 6.07999 11.2667 6.39999 11.2667H14.9333C15.2533 11.2667 15.4667 11.48 15.4667 11.8C15.4667 12.12 15.2533 12.3333 14.9333 12.3333Z" fill="#FECF6F"/>
</svg>
