<svg width="16" height="12" viewBox="0 0 16 12" fill="none" xmlns="http://www.w3.org/2000/svg">
<path d="M4 3.8325C4.66328 3.525 5.375 2.82 5.375 2C5.375 0.895 4.53594 0 3.5 0C2.46406 0 1.625 0.895 1.625 2C1.625 2.82 2.33672 3.525 3 3.8325V5.5H1.25C0.835156 5.5 0.5 5.5575 0.5 6C0.5 6.4425 0.835156 6.5 1.25 6.5H7.5V8.1675C6.83672 8.475 6.125 9.18 6.125 10C6.125 11.105 6.96406 12 8 12C9.03594 12 9.875 11.105 9.875 10C9.875 9.18 9.16328 8.475 8.5 8.1675V6.5H14.75C15.1648 6.5 15.5 6.4425 15.5 6C15.5 5.5575 15.1648 5.5 14.75 5.5H13V3.8325C13.6633 3.525 14.375 2.82 14.375 2C14.375 0.895 13.5359 0 12.5 0C11.4641 0 10.625 0.895 10.625 2C10.625 2.82 11.3367 3.525 12 3.8325V5.5H4V3.8325Z" fill="#A5A5A5"/>
</svg>
