<svg width="8" height="8" viewBox="0 0 8 8" fill="none" xmlns="http://www.w3.org/2000/svg">
<path d="M4 0C6.2092 0 8 1.7908 8 4C8 6.2092 6.2092 8 4 8C1.7908 8 0 6.2092 0 4C0 1.7908 1.7908 0 4 0ZM4 0.8C3.15131 0.8 2.33737 1.13714 1.73726 1.73726C1.13714 2.33737 0.8 3.15131 0.8 4C0.8 4.84869 1.13714 5.66263 1.73726 6.26274C2.33737 6.86286 3.15131 7.2 4 7.2C4.84869 7.2 5.66263 6.86286 6.26274 6.26274C6.86286 5.66263 7.2 4.84869 7.2 4C7.2 3.15131 6.86286 2.33737 6.26274 1.73726C5.66263 1.13714 4.84869 0.8 4 0.8ZM4 1.6C4.09797 1.60001 4.19254 1.63598 4.26575 1.70109C4.33896 1.76619 4.38574 1.8559 4.3972 1.9532L4.4 2V3.8344L5.4828 4.9172C5.55454 4.98918 5.59619 5.08577 5.59929 5.18735C5.60239 5.28893 5.56671 5.38789 5.4995 5.46411C5.43229 5.54034 5.33858 5.58812 5.23741 5.59776C5.13624 5.6074 5.0352 5.57816 4.9548 5.516L4.9172 5.4828L3.7172 4.2828C3.65503 4.22058 3.61511 4.1396 3.6036 4.0524L3.6 4V2C3.6 1.89391 3.64214 1.79217 3.71716 1.71716C3.79217 1.64214 3.89391 1.6 4 1.6Z" fill="black"/>
</svg>
