<svg width="7" height="9" viewBox="0 0 7 9" fill="none" xmlns="http://www.w3.org/2000/svg">
<path d="M3.5 7.68241C4.38958 6.90966 5.04948 6.20756 5.47969 5.57612C5.9099 4.94467 6.125 4.38416 6.125 3.89457C6.125 3.14252 5.87154 2.5268 5.36462 2.04743C4.85771 1.56805 4.23617 1.32822 3.5 1.32794C2.76354 1.32794 2.14185 1.56777 1.63494 2.04743C1.12802 2.52708 0.874708 3.14279 0.875 3.89457C0.875 4.38443 1.0901 4.94509 1.52031 5.57653C1.95052 6.20798 2.61042 6.90994 3.5 7.68241ZM3.5 8.5C3.39792 8.5 3.29583 8.48275 3.19375 8.44825C3.09167 8.41376 3.00052 8.36201 2.92031 8.29301C2.44635 7.87904 2.02708 7.47542 1.6625 7.08215C1.29792 6.68887 0.993562 6.30774 0.749437 5.93876C0.505021 5.56949 0.319083 5.21417 0.191625 4.87278C0.0641667 4.53139 0.000291667 4.20532 0 3.89457C0 2.85964 0.351896 2.03514 1.05569 1.42109C1.75948 0.807029 2.57425 0.5 3.5 0.5C4.42604 0.5 5.24096 0.807029 5.94475 1.42109C6.64854 2.03514 7.00029 2.85964 7 3.89457C7 4.20504 6.93613 4.53112 6.80838 4.87278C6.68063 5.21445 6.49469 5.56977 6.25056 5.93876C6.00644 6.30774 5.70208 6.68887 5.3375 7.08215C4.97292 7.47542 4.55365 7.87904 4.07969 8.29301C3.99948 8.36201 3.90833 8.41376 3.80625 8.44825C3.70417 8.48275 3.60208 8.5 3.5 8.5ZM3.5 4.63972C3.74063 4.63972 3.94669 4.55871 4.11819 4.39671C4.28969 4.23471 4.37529 4.03973 4.375 3.81177C4.375 3.58409 4.28925 3.38911 4.11775 3.22683C3.94625 3.06455 3.74033 2.98355 3.5 2.98383C3.25937 2.98383 3.05331 3.06497 2.88181 3.22724C2.71031 3.38952 2.62471 3.58436 2.625 3.81177C2.625 4.03946 2.71075 4.23444 2.88225 4.39671C3.05375 4.55899 3.25967 4.63999 3.5 4.63972Z" fill="black"/>
</svg>
